<mxfile host="Electron" agent="Mozilla/5.0 (Windows NT 10.0; Win64; x64) AppleWebKit/537.36 (KHTML, like Gecko) draw.io/24.7.17 Chrome/128.0.6613.36 Electron/32.0.1 Safari/537.36" version="24.7.17">
  <diagram name="Страница — 1" id="e16Mzyw4oIjE0R5JBYi_">
    <mxGraphModel dx="2900" dy="1258" grid="0" gridSize="10" guides="1" tooltips="1" connect="1" arrows="1" fold="1" page="0" pageScale="1" pageWidth="827" pageHeight="1169" math="0" shadow="0">
      <root>
        <mxCell id="0" />
        <mxCell id="1" parent="0" />
        <mxCell id="fN3GGHN8PjM2oaeLc_PI-1" value="Mobile app" style="shape=umlLifeline;perimeter=lifelinePerimeter;whiteSpace=wrap;html=1;container=1;dropTarget=0;collapsible=0;recursiveResize=0;outlineConnect=0;portConstraint=eastwest;newEdgeStyle={&quot;curved&quot;:0,&quot;rounded&quot;:0};" vertex="1" parent="1">
          <mxGeometry x="-247" y="140" width="100" height="1180" as="geometry" />
        </mxCell>
        <mxCell id="fN3GGHN8PjM2oaeLc_PI-2" value="" style="html=1;points=[[0,0,0,0,5],[0,1,0,0,-5],[1,0,0,0,5],[1,1,0,0,-5]];perimeter=orthogonalPerimeter;outlineConnect=0;targetShapes=umlLifeline;portConstraint=eastwest;newEdgeStyle={&quot;curved&quot;:0,&quot;rounded&quot;:0};" vertex="1" parent="fN3GGHN8PjM2oaeLc_PI-1">
          <mxGeometry x="45" y="74" width="10" height="329" as="geometry" />
        </mxCell>
        <mxCell id="fN3GGHN8PjM2oaeLc_PI-112" value="" style="html=1;points=[[0,0,0,0,5],[0,1,0,0,-5],[1,0,0,0,5],[1,1,0,0,-5]];perimeter=orthogonalPerimeter;outlineConnect=0;targetShapes=umlLifeline;portConstraint=eastwest;newEdgeStyle={&quot;curved&quot;:0,&quot;rounded&quot;:0};" vertex="1" parent="fN3GGHN8PjM2oaeLc_PI-1">
          <mxGeometry x="45" y="432" width="10" height="604" as="geometry" />
        </mxCell>
        <mxCell id="fN3GGHN8PjM2oaeLc_PI-8" value="" style="shape=umlLifeline;perimeter=lifelinePerimeter;whiteSpace=wrap;html=1;container=1;dropTarget=0;collapsible=0;recursiveResize=0;outlineConnect=0;portConstraint=eastwest;newEdgeStyle={&quot;curved&quot;:0,&quot;rounded&quot;:0};participant=umlActor;" vertex="1" parent="1">
          <mxGeometry x="-422" y="140" width="20" height="1180" as="geometry" />
        </mxCell>
        <mxCell id="fN3GGHN8PjM2oaeLc_PI-9" value="" style="html=1;points=[[0,0,0,0,5],[0,1,0,0,-5],[1,0,0,0,5],[1,1,0,0,-5]];perimeter=orthogonalPerimeter;outlineConnect=0;targetShapes=umlLifeline;portConstraint=eastwest;newEdgeStyle={&quot;curved&quot;:0,&quot;rounded&quot;:0};" vertex="1" parent="fN3GGHN8PjM2oaeLc_PI-8">
          <mxGeometry x="5" y="55" width="10" height="1059" as="geometry" />
        </mxCell>
        <mxCell id="fN3GGHN8PjM2oaeLc_PI-117" value="" style="html=1;points=[[0,0,0,0,5],[0,1,0,0,-5],[1,0,0,0,5],[1,1,0,0,-5]];perimeter=orthogonalPerimeter;outlineConnect=0;targetShapes=umlLifeline;portConstraint=eastwest;newEdgeStyle={&quot;curved&quot;:0,&quot;rounded&quot;:0};" vertex="1" parent="fN3GGHN8PjM2oaeLc_PI-8">
          <mxGeometry x="10" y="369" width="10" height="40" as="geometry" />
        </mxCell>
        <mxCell id="fN3GGHN8PjM2oaeLc_PI-10" value="Gateway" style="shape=umlLifeline;perimeter=lifelinePerimeter;whiteSpace=wrap;html=1;container=1;dropTarget=0;collapsible=0;recursiveResize=0;outlineConnect=0;portConstraint=eastwest;newEdgeStyle={&quot;curved&quot;:0,&quot;rounded&quot;:0};" vertex="1" parent="1">
          <mxGeometry x="-76" y="140" width="100" height="1178" as="geometry" />
        </mxCell>
        <mxCell id="fN3GGHN8PjM2oaeLc_PI-11" value="" style="html=1;points=[[0,0,0,0,5],[0,1,0,0,-5],[1,0,0,0,5],[1,1,0,0,-5]];perimeter=orthogonalPerimeter;outlineConnect=0;targetShapes=umlLifeline;portConstraint=eastwest;newEdgeStyle={&quot;curved&quot;:0,&quot;rounded&quot;:0};" vertex="1" parent="fN3GGHN8PjM2oaeLc_PI-10">
          <mxGeometry x="45" y="130" width="10" height="218" as="geometry" />
        </mxCell>
        <mxCell id="fN3GGHN8PjM2oaeLc_PI-121" value="" style="html=1;points=[[0,0,0,0,5],[0,1,0,0,-5],[1,0,0,0,5],[1,1,0,0,-5]];perimeter=orthogonalPerimeter;outlineConnect=0;targetShapes=umlLifeline;portConstraint=eastwest;newEdgeStyle={&quot;curved&quot;:0,&quot;rounded&quot;:0};" vertex="1" parent="fN3GGHN8PjM2oaeLc_PI-10">
          <mxGeometry x="45" y="446" width="10" height="541" as="geometry" />
        </mxCell>
        <mxCell id="fN3GGHN8PjM2oaeLc_PI-14" value="Core" style="shape=umlLifeline;perimeter=lifelinePerimeter;whiteSpace=wrap;html=1;container=1;dropTarget=0;collapsible=0;recursiveResize=0;outlineConnect=0;portConstraint=eastwest;newEdgeStyle={&quot;curved&quot;:0,&quot;rounded&quot;:0};" vertex="1" parent="1">
          <mxGeometry x="300" y="140" width="100" height="1182" as="geometry" />
        </mxCell>
        <mxCell id="fN3GGHN8PjM2oaeLc_PI-135" value="" style="html=1;points=[[0,0,0,0,5],[0,1,0,0,-5],[1,0,0,0,5],[1,1,0,0,-5]];perimeter=orthogonalPerimeter;outlineConnect=0;targetShapes=umlLifeline;portConstraint=eastwest;newEdgeStyle={&quot;curved&quot;:0,&quot;rounded&quot;:0};" vertex="1" parent="fN3GGHN8PjM2oaeLc_PI-14">
          <mxGeometry x="45" y="708" width="10" height="225" as="geometry" />
        </mxCell>
        <mxCell id="fN3GGHN8PjM2oaeLc_PI-17" value="User" style="text;html=1;align=center;verticalAlign=middle;whiteSpace=wrap;rounded=0;" vertex="1" parent="1">
          <mxGeometry x="-442" y="87" width="60" height="30" as="geometry" />
        </mxCell>
        <mxCell id="fN3GGHN8PjM2oaeLc_PI-21" value="Auth" style="shape=umlLifeline;perimeter=lifelinePerimeter;whiteSpace=wrap;html=1;container=1;dropTarget=0;collapsible=0;recursiveResize=0;outlineConnect=0;portConstraint=eastwest;newEdgeStyle={&quot;curved&quot;:0,&quot;rounded&quot;:0};" vertex="1" parent="1">
          <mxGeometry x="111" y="140" width="100" height="1182" as="geometry" />
        </mxCell>
        <mxCell id="fN3GGHN8PjM2oaeLc_PI-124" value="" style="html=1;points=[[0,0,0,0,5],[0,1,0,0,-5],[1,0,0,0,5],[1,1,0,0,-5]];perimeter=orthogonalPerimeter;outlineConnect=0;targetShapes=umlLifeline;portConstraint=eastwest;newEdgeStyle={&quot;curved&quot;:0,&quot;rounded&quot;:0};" vertex="1" parent="fN3GGHN8PjM2oaeLc_PI-21">
          <mxGeometry x="45" y="459" width="10" height="486" as="geometry" />
        </mxCell>
        <mxCell id="fN3GGHN8PjM2oaeLc_PI-25" value="" style="endArrow=classicThin;endFill=1;endSize=12;html=1;rounded=0;exitX=1;exitY=0.062;exitDx=0;exitDy=0;exitPerimeter=0;" edge="1" parent="1">
          <mxGeometry width="160" relative="1" as="geometry">
            <mxPoint x="-406" y="220.99599999999995" as="sourcePoint" />
            <mxPoint x="-201" y="220.99599999999995" as="targetPoint" />
          </mxGeometry>
        </mxCell>
        <mxCell id="fN3GGHN8PjM2oaeLc_PI-26" value="Запрос на &lt;br&gt;формление отклика" style="text;html=1;align=center;verticalAlign=middle;resizable=0;points=[];autosize=1;strokeColor=none;fillColor=none;" vertex="1" parent="1">
          <mxGeometry x="-392" y="182" width="130" height="41" as="geometry" />
        </mxCell>
        <mxCell id="fN3GGHN8PjM2oaeLc_PI-28" value="" style="endArrow=classicThin;endFill=1;endSize=12;html=1;rounded=0;" edge="1" parent="1" source="fN3GGHN8PjM2oaeLc_PI-112" target="fN3GGHN8PjM2oaeLc_PI-121">
          <mxGeometry width="160" relative="1" as="geometry">
            <mxPoint x="-192" y="297" as="sourcePoint" />
            <mxPoint x="-31" y="297" as="targetPoint" />
            <Array as="points">
              <mxPoint x="-120" y="587" />
            </Array>
          </mxGeometry>
        </mxCell>
        <mxCell id="fN3GGHN8PjM2oaeLc_PI-79" value="Notifications" style="shape=umlLifeline;perimeter=lifelinePerimeter;whiteSpace=wrap;html=1;container=1;dropTarget=0;collapsible=0;recursiveResize=0;outlineConnect=0;portConstraint=eastwest;newEdgeStyle={&quot;curved&quot;:0,&quot;rounded&quot;:0};" vertex="1" parent="1">
          <mxGeometry x="478" y="140" width="100" height="1184" as="geometry" />
        </mxCell>
        <mxCell id="fN3GGHN8PjM2oaeLc_PI-140" value="" style="html=1;points=[[0,0,0,0,5],[0,1,0,0,-5],[1,0,0,0,5],[1,1,0,0,-5]];perimeter=orthogonalPerimeter;outlineConnect=0;targetShapes=umlLifeline;portConstraint=eastwest;newEdgeStyle={&quot;curved&quot;:0,&quot;rounded&quot;:0};" vertex="1" parent="fN3GGHN8PjM2oaeLc_PI-79">
          <mxGeometry x="45" y="771" width="10" height="108" as="geometry" />
        </mxCell>
        <mxCell id="fN3GGHN8PjM2oaeLc_PI-142" value="" style="html=1;points=[[0,0,0,0,5],[0,1,0,0,-5],[1,0,0,0,5],[1,1,0,0,-5]];perimeter=orthogonalPerimeter;outlineConnect=0;targetShapes=umlLifeline;portConstraint=eastwest;newEdgeStyle={&quot;curved&quot;:0,&quot;rounded&quot;:0};" vertex="1" parent="fN3GGHN8PjM2oaeLc_PI-79">
          <mxGeometry x="50" y="840" width="10" height="29" as="geometry" />
        </mxCell>
        <mxCell id="fN3GGHN8PjM2oaeLc_PI-143" value="" style="endArrow=classicThin;endFill=1;endSize=12;html=1;rounded=0;entryX=1;entryY=0;entryDx=0;entryDy=5;entryPerimeter=0;edgeStyle=orthogonalEdgeStyle;" edge="1" parent="fN3GGHN8PjM2oaeLc_PI-79" source="fN3GGHN8PjM2oaeLc_PI-140" target="fN3GGHN8PjM2oaeLc_PI-142">
          <mxGeometry width="160" relative="1" as="geometry">
            <mxPoint x="70" y="832" as="sourcePoint" />
            <mxPoint x="238" y="832" as="targetPoint" />
            <Array as="points">
              <mxPoint x="84" y="825" />
              <mxPoint x="84" y="845" />
            </Array>
          </mxGeometry>
        </mxCell>
        <mxCell id="fN3GGHN8PjM2oaeLc_PI-82" value="" style="ellipse;html=1;shape=endState;fillColor=strokeColor;" vertex="1" parent="1">
          <mxGeometry x="-557" y="201" width="30" height="30" as="geometry" />
        </mxCell>
        <mxCell id="fN3GGHN8PjM2oaeLc_PI-83" value="" style="endArrow=classicThin;endFill=1;endSize=12;html=1;rounded=0;exitX=1;exitY=0.5;exitDx=0;exitDy=0;" edge="1" parent="1" source="fN3GGHN8PjM2oaeLc_PI-82" target="fN3GGHN8PjM2oaeLc_PI-9">
          <mxGeometry width="160" relative="1" as="geometry">
            <mxPoint x="-333" y="229" as="sourcePoint" />
            <mxPoint x="-192" y="229" as="targetPoint" />
          </mxGeometry>
        </mxCell>
        <mxCell id="fN3GGHN8PjM2oaeLc_PI-84" value="найдено &lt;br&gt;нужное объявление" style="text;html=1;align=center;verticalAlign=middle;resizable=0;points=[];autosize=1;strokeColor=none;fillColor=none;" vertex="1" parent="1">
          <mxGeometry x="-567" y="162" width="129" height="41" as="geometry" />
        </mxCell>
        <mxCell id="fN3GGHN8PjM2oaeLc_PI-87" value="alt" style="shape=umlFrame;whiteSpace=wrap;html=1;pointerEvents=0;recursiveResize=0;container=1;collapsible=0;width=160;" vertex="1" parent="1">
          <mxGeometry x="97" y="537" width="334" height="284" as="geometry" />
        </mxCell>
        <mxCell id="fN3GGHN8PjM2oaeLc_PI-89" value="[токен верен]" style="text;html=1;align=center;verticalAlign=middle;resizable=0;points=[];autosize=1;strokeColor=none;fillColor=none;" vertex="1" parent="fN3GGHN8PjM2oaeLc_PI-87">
          <mxGeometry x="160" width="92" height="26" as="geometry" />
        </mxCell>
        <mxCell id="fN3GGHN8PjM2oaeLc_PI-90" value="[токен&lt;br&gt;&amp;nbsp;неверен]" style="text;html=1;align=center;verticalAlign=middle;resizable=0;points=[];autosize=1;strokeColor=none;fillColor=none;" vertex="1" parent="fN3GGHN8PjM2oaeLc_PI-87">
          <mxGeometry x="-8" y="215" width="71" height="41" as="geometry" />
        </mxCell>
        <mxCell id="fN3GGHN8PjM2oaeLc_PI-132" value="" style="html=1;points=[[0,0,0,0,5],[0,1,0,0,-5],[1,0,0,0,5],[1,1,0,0,-5]];perimeter=orthogonalPerimeter;outlineConnect=0;targetShapes=umlLifeline;portConstraint=eastwest;newEdgeStyle={&quot;curved&quot;:0,&quot;rounded&quot;:0};" vertex="1" parent="fN3GGHN8PjM2oaeLc_PI-87">
          <mxGeometry x="248" y="46" width="10" height="150" as="geometry" />
        </mxCell>
        <mxCell id="fN3GGHN8PjM2oaeLc_PI-134" value="Запрос на &lt;br&gt;формление отклика" style="text;html=1;align=center;verticalAlign=middle;resizable=0;points=[];autosize=1;strokeColor=none;fillColor=none;" vertex="1" parent="fN3GGHN8PjM2oaeLc_PI-87">
          <mxGeometry x="85" y="51" width="130" height="41" as="geometry" />
        </mxCell>
        <mxCell id="fN3GGHN8PjM2oaeLc_PI-133" value="" style="endArrow=classicThin;endFill=1;endSize=12;html=1;rounded=0;entryX=0.2;entryY=0.5;entryDx=0;entryDy=0;entryPerimeter=0;" edge="1" parent="fN3GGHN8PjM2oaeLc_PI-87">
          <mxGeometry width="160" relative="1" as="geometry">
            <mxPoint x="69" y="109" as="sourcePoint" />
            <mxPoint x="249.00000000000045" y="109" as="targetPoint" />
          </mxGeometry>
        </mxCell>
        <mxCell id="fN3GGHN8PjM2oaeLc_PI-88" value="" style="endArrow=none;endFill=0;endSize=12;html=1;rounded=0;entryX=0.998;entryY=0.704;entryDx=0;entryDy=0;entryPerimeter=0;exitX=0;exitY=0.706;exitDx=0;exitDy=0;exitPerimeter=0;dashed=1;dashPattern=8 8;" edge="1" parent="fN3GGHN8PjM2oaeLc_PI-87">
          <mxGeometry width="160" relative="1" as="geometry">
            <mxPoint y="209.56400000000008" as="sourcePoint" />
            <mxPoint x="333.33200000000033" y="208.9960000000001" as="targetPoint" />
          </mxGeometry>
        </mxCell>
        <mxCell id="fN3GGHN8PjM2oaeLc_PI-94" value="alt" style="shape=umlFrame;whiteSpace=wrap;html=1;pointerEvents=0;recursiveResize=0;container=1;collapsible=0;width=160;" vertex="1" parent="1">
          <mxGeometry x="-380" y="258" width="467" height="169" as="geometry" />
        </mxCell>
        <mxCell id="fN3GGHN8PjM2oaeLc_PI-95" value="[авторизован]" style="text;html=1;align=center;verticalAlign=middle;resizable=0;points=[];autosize=1;strokeColor=none;fillColor=none;" vertex="1" parent="fN3GGHN8PjM2oaeLc_PI-94">
          <mxGeometry x="15" y="29" width="94" height="26" as="geometry" />
        </mxCell>
        <mxCell id="fN3GGHN8PjM2oaeLc_PI-99" value="" style="endArrow=none;endFill=0;endSize=12;html=1;rounded=0;startArrow=classicThin;startFill=1;dashed=1;" edge="1" parent="fN3GGHN8PjM2oaeLc_PI-94">
          <mxGeometry width="160" relative="1" as="geometry">
            <mxPoint x="-27" y="153" as="sourcePoint" />
            <mxPoint x="178" y="153" as="targetPoint" />
          </mxGeometry>
        </mxCell>
        <mxCell id="fN3GGHN8PjM2oaeLc_PI-100" value="Запрос авторизации" style="text;html=1;align=center;verticalAlign=middle;resizable=0;points=[];autosize=1;strokeColor=none;fillColor=none;" vertex="1" parent="fN3GGHN8PjM2oaeLc_PI-94">
          <mxGeometry x="10" y="126" width="132" height="26" as="geometry" />
        </mxCell>
        <mxCell id="fN3GGHN8PjM2oaeLc_PI-101" value="" style="endArrow=none;endFill=0;endSize=12;html=1;rounded=0;entryX=0.998;entryY=0.662;entryDx=0;entryDy=0;entryPerimeter=0;exitX=0.007;exitY=0.677;exitDx=0;exitDy=0;exitPerimeter=0;dashed=1;dashPattern=8 8;" edge="1" parent="fN3GGHN8PjM2oaeLc_PI-94">
          <mxGeometry width="160" relative="1" as="geometry">
            <mxPoint x="2.074000000000126" y="101.53300000000002" as="sourcePoint" />
            <mxPoint x="459.91600000000005" y="98.99799999999993" as="targetPoint" />
          </mxGeometry>
        </mxCell>
        <mxCell id="fN3GGHN8PjM2oaeLc_PI-96" value="[не авторизован" style="text;html=1;align=center;verticalAlign=middle;resizable=0;points=[];autosize=1;strokeColor=none;fillColor=none;" vertex="1" parent="fN3GGHN8PjM2oaeLc_PI-94">
          <mxGeometry x="14" y="100" width="108" height="26" as="geometry" />
        </mxCell>
        <mxCell id="fN3GGHN8PjM2oaeLc_PI-109" value="" style="endArrow=none;endFill=0;endSize=12;html=1;rounded=0;startArrow=classic;startFill=1;dashed=1;" edge="1" parent="fN3GGHN8PjM2oaeLc_PI-94">
          <mxGeometry width="160" relative="1" as="geometry">
            <mxPoint x="-26.5" y="84.07" as="sourcePoint" />
            <mxPoint x="178.5" y="84.07" as="targetPoint" />
          </mxGeometry>
        </mxCell>
        <mxCell id="fN3GGHN8PjM2oaeLc_PI-110" value="Окно параметров запроса" style="text;html=1;align=center;verticalAlign=middle;resizable=0;points=[];autosize=1;strokeColor=none;fillColor=none;" vertex="1" parent="fN3GGHN8PjM2oaeLc_PI-94">
          <mxGeometry y="61" width="164" height="26" as="geometry" />
        </mxCell>
        <mxCell id="fN3GGHN8PjM2oaeLc_PI-105" value="" style="endArrow=none;endFill=0;endSize=12;html=1;rounded=0;startArrow=classic;startFill=1;dashed=1;" edge="1" parent="1">
          <mxGeometry width="160" relative="1" as="geometry">
            <mxPoint x="-192.5" y="812" as="sourcePoint" />
            <mxPoint x="-31.5" y="812" as="targetPoint" />
            <Array as="points">
              <mxPoint x="-174.5" y="812" />
            </Array>
          </mxGeometry>
        </mxCell>
        <mxCell id="fN3GGHN8PjM2oaeLc_PI-106" value="Ошибка доступа" style="text;html=1;align=center;verticalAlign=middle;resizable=0;points=[];autosize=1;strokeColor=none;fillColor=none;" vertex="1" parent="1">
          <mxGeometry x="-175" y="780" width="111" height="26" as="geometry" />
        </mxCell>
        <mxCell id="fN3GGHN8PjM2oaeLc_PI-111" value="" style="endArrow=classicThin;endFill=1;endSize=12;html=1;rounded=0;" edge="1" parent="1" source="fN3GGHN8PjM2oaeLc_PI-9" target="fN3GGHN8PjM2oaeLc_PI-112">
          <mxGeometry width="160" relative="1" as="geometry">
            <mxPoint x="-410" y="619.996" as="sourcePoint" />
            <mxPoint x="-205" y="619.996" as="targetPoint" />
            <Array as="points">
              <mxPoint x="-285" y="580" />
            </Array>
          </mxGeometry>
        </mxCell>
        <mxCell id="fN3GGHN8PjM2oaeLc_PI-113" value="Подтверждение запроса" style="text;html=1;align=center;verticalAlign=middle;resizable=0;points=[];autosize=1;strokeColor=none;fillColor=none;" vertex="1" parent="1">
          <mxGeometry x="-389" y="553" width="155" height="26" as="geometry" />
        </mxCell>
        <mxCell id="fN3GGHN8PjM2oaeLc_PI-119" value="" style="endArrow=classicThin;endFill=1;endSize=12;html=1;rounded=0;entryX=1;entryY=0;entryDx=0;entryDy=5;entryPerimeter=0;edgeStyle=orthogonalEdgeStyle;" edge="1" parent="1" target="fN3GGHN8PjM2oaeLc_PI-117">
          <mxGeometry width="160" relative="1" as="geometry">
            <mxPoint x="-407" y="489" as="sourcePoint" />
            <mxPoint x="-216" y="489" as="targetPoint" />
            <Array as="points">
              <mxPoint x="-407" y="500" />
              <mxPoint x="-381" y="500" />
              <mxPoint x="-381" y="514" />
            </Array>
          </mxGeometry>
        </mxCell>
        <mxCell id="fN3GGHN8PjM2oaeLc_PI-120" value="ввод данных" style="text;html=1;align=center;verticalAlign=middle;resizable=0;points=[];autosize=1;strokeColor=none;fillColor=none;" vertex="1" parent="1">
          <mxGeometry x="-402" y="478" width="89" height="26" as="geometry" />
        </mxCell>
        <mxCell id="fN3GGHN8PjM2oaeLc_PI-123" value="Запрос на &lt;br&gt;формление отклика" style="text;html=1;align=center;verticalAlign=middle;resizable=0;points=[];autosize=1;strokeColor=none;fillColor=none;" vertex="1" parent="1">
          <mxGeometry x="-177" y="534" width="130" height="41" as="geometry" />
        </mxCell>
        <mxCell id="fN3GGHN8PjM2oaeLc_PI-125" value="" style="endArrow=classicThin;endFill=1;endSize=12;html=1;rounded=0;" edge="1" parent="1" source="fN3GGHN8PjM2oaeLc_PI-121" target="fN3GGHN8PjM2oaeLc_PI-124">
          <mxGeometry width="160" relative="1" as="geometry">
            <mxPoint x="2" y="626" as="sourcePoint" />
            <mxPoint x="163" y="626" as="targetPoint" />
            <Array as="points">
              <mxPoint x="72" y="609" />
            </Array>
          </mxGeometry>
        </mxCell>
        <mxCell id="fN3GGHN8PjM2oaeLc_PI-126" value="Запрос на &lt;br&gt;формление отклика" style="text;html=1;align=center;verticalAlign=middle;resizable=0;points=[];autosize=1;strokeColor=none;fillColor=none;" vertex="1" parent="1">
          <mxGeometry x="-26.5" y="548" width="130" height="41" as="geometry" />
        </mxCell>
        <mxCell id="fN3GGHN8PjM2oaeLc_PI-128" value="" style="endArrow=none;endFill=0;endSize=12;html=1;rounded=0;startArrow=classic;startFill=1;dashed=1;" edge="1" parent="1" source="fN3GGHN8PjM2oaeLc_PI-121" target="fN3GGHN8PjM2oaeLc_PI-124">
          <mxGeometry width="160" relative="1" as="geometry">
            <mxPoint x="36" y="807" as="sourcePoint" />
            <mxPoint x="212.99999999999977" y="807.05" as="targetPoint" />
            <Array as="points">
              <mxPoint x="59" y="807" />
              <mxPoint x="123" y="807.05" />
            </Array>
          </mxGeometry>
        </mxCell>
        <mxCell id="fN3GGHN8PjM2oaeLc_PI-129" value="Ошибка доступа" style="text;html=1;align=center;verticalAlign=middle;resizable=0;points=[];autosize=1;strokeColor=none;fillColor=none;" vertex="1" parent="1">
          <mxGeometry x="-14" y="780" width="111" height="26" as="geometry" />
        </mxCell>
        <mxCell id="fN3GGHN8PjM2oaeLc_PI-130" value="" style="endArrow=none;endFill=0;endSize=12;html=1;rounded=0;startArrow=classic;startFill=1;dashed=1;" edge="1" parent="1" source="fN3GGHN8PjM2oaeLc_PI-9" target="fN3GGHN8PjM2oaeLc_PI-112">
          <mxGeometry width="160" relative="1" as="geometry">
            <mxPoint x="-411" y="846" as="sourcePoint" />
            <mxPoint x="-250" y="846" as="targetPoint" />
            <Array as="points">
              <mxPoint x="-393" y="846" />
            </Array>
          </mxGeometry>
        </mxCell>
        <mxCell id="fN3GGHN8PjM2oaeLc_PI-131" value="Отображение ошибки" style="text;html=1;align=center;verticalAlign=middle;resizable=0;points=[];autosize=1;strokeColor=none;fillColor=none;" vertex="1" parent="1">
          <mxGeometry x="-387" y="814" width="139" height="26" as="geometry" />
        </mxCell>
        <mxCell id="fN3GGHN8PjM2oaeLc_PI-136" value="" style="endArrow=classicThin;endFill=1;endSize=12;html=1;rounded=0;exitX=1;exitY=1;exitDx=0;exitDy=-5;exitPerimeter=0;edgeStyle=orthogonalEdgeStyle;" edge="1" parent="1" source="fN3GGHN8PjM2oaeLc_PI-132" target="fN3GGHN8PjM2oaeLc_PI-135">
          <mxGeometry width="160" relative="1" as="geometry">
            <mxPoint x="250" y="872" as="sourcePoint" />
            <mxPoint x="362" y="858" as="targetPoint" />
            <Array as="points">
              <mxPoint x="378" y="728" />
              <mxPoint x="378" y="923" />
            </Array>
          </mxGeometry>
        </mxCell>
        <mxCell id="fN3GGHN8PjM2oaeLc_PI-137" value="Сохранение&lt;br&gt;&amp;nbsp;отклика" style="text;html=1;align=center;verticalAlign=middle;resizable=0;points=[];autosize=1;strokeColor=none;fillColor=none;" vertex="1" parent="1">
          <mxGeometry x="381" y="838" width="86" height="41" as="geometry" />
        </mxCell>
        <mxCell id="fN3GGHN8PjM2oaeLc_PI-139" value="" style="endArrow=classicThin;endFill=1;endSize=12;html=1;rounded=0;" edge="1" parent="1" source="fN3GGHN8PjM2oaeLc_PI-135" target="fN3GGHN8PjM2oaeLc_PI-140">
          <mxGeometry width="160" relative="1" as="geometry">
            <mxPoint x="149" y="925" as="sourcePoint" />
            <mxPoint x="329.00000000000045" y="925" as="targetPoint" />
            <Array as="points">
              <mxPoint x="442" y="954" />
            </Array>
          </mxGeometry>
        </mxCell>
        <mxCell id="fN3GGHN8PjM2oaeLc_PI-141" value="Сообщение&lt;br&gt;&amp;nbsp;об оформлении отклика" style="text;html=1;align=center;verticalAlign=middle;resizable=0;points=[];autosize=1;strokeColor=none;fillColor=none;" vertex="1" parent="1">
          <mxGeometry x="354" y="908" width="157" height="41" as="geometry" />
        </mxCell>
        <mxCell id="fN3GGHN8PjM2oaeLc_PI-144" value="Уведомление&lt;br&gt;&amp;nbsp;владельца объявления" style="text;html=1;align=center;verticalAlign=middle;resizable=0;points=[];autosize=1;strokeColor=none;fillColor=none;" vertex="1" parent="1">
          <mxGeometry x="558" y="944" width="151" height="41" as="geometry" />
        </mxCell>
        <mxCell id="fN3GGHN8PjM2oaeLc_PI-145" value="" style="endArrow=none;endFill=0;endSize=12;html=1;rounded=0;startArrow=classic;startFill=1;dashed=1;" edge="1" parent="1" source="fN3GGHN8PjM2oaeLc_PI-124" target="fN3GGHN8PjM2oaeLc_PI-135">
          <mxGeometry width="160" relative="1" as="geometry">
            <mxPoint x="163" y="1044" as="sourcePoint" />
            <mxPoint x="324" y="1044" as="targetPoint" />
            <Array as="points">
              <mxPoint x="181" y="1044" />
            </Array>
          </mxGeometry>
        </mxCell>
        <mxCell id="fN3GGHN8PjM2oaeLc_PI-146" value="Ответ об оформлении отклика" style="text;html=1;align=center;verticalAlign=middle;resizable=0;points=[];autosize=1;strokeColor=none;fillColor=none;" vertex="1" parent="1">
          <mxGeometry x="162" y="1002" width="189" height="26" as="geometry" />
        </mxCell>
        <mxCell id="fN3GGHN8PjM2oaeLc_PI-147" value="" style="endArrow=none;endFill=0;endSize=12;html=1;rounded=0;startArrow=classic;startFill=1;dashed=1;" edge="1" parent="1" source="fN3GGHN8PjM2oaeLc_PI-121" target="fN3GGHN8PjM2oaeLc_PI-124">
          <mxGeometry width="160" relative="1" as="geometry">
            <mxPoint x="-14" y="1075" as="sourcePoint" />
            <mxPoint x="185" y="1075" as="targetPoint" />
            <Array as="points">
              <mxPoint x="1" y="1075" />
            </Array>
          </mxGeometry>
        </mxCell>
        <mxCell id="fN3GGHN8PjM2oaeLc_PI-149" value="Ответ об оформлении отклика" style="text;html=1;align=center;verticalAlign=middle;resizable=0;points=[];autosize=1;strokeColor=none;fillColor=none;" vertex="1" parent="1">
          <mxGeometry x="-26.5" y="1041" width="189" height="26" as="geometry" />
        </mxCell>
        <mxCell id="fN3GGHN8PjM2oaeLc_PI-150" value="" style="endArrow=none;endFill=0;endSize=12;html=1;rounded=0;startArrow=classic;startFill=1;dashed=1;" edge="1" parent="1" source="fN3GGHN8PjM2oaeLc_PI-112" target="fN3GGHN8PjM2oaeLc_PI-121">
          <mxGeometry width="160" relative="1" as="geometry">
            <mxPoint x="-196" y="1112" as="sourcePoint" />
            <mxPoint x="-19" y="1112" as="targetPoint" />
            <Array as="points">
              <mxPoint x="-174" y="1112" />
            </Array>
          </mxGeometry>
        </mxCell>
        <mxCell id="fN3GGHN8PjM2oaeLc_PI-151" value="Ответ об &lt;br&gt;оформлении отклика" style="text;html=1;align=center;verticalAlign=middle;resizable=0;points=[];autosize=1;strokeColor=none;fillColor=none;" vertex="1" parent="1">
          <mxGeometry x="-179.5" y="1067" width="136" height="41" as="geometry" />
        </mxCell>
        <mxCell id="fN3GGHN8PjM2oaeLc_PI-152" value="" style="endArrow=none;endFill=0;endSize=12;html=1;rounded=0;startArrow=classic;startFill=1;dashed=1;" edge="1" parent="1" source="fN3GGHN8PjM2oaeLc_PI-9" target="fN3GGHN8PjM2oaeLc_PI-112">
          <mxGeometry width="160" relative="1" as="geometry">
            <mxPoint x="-380" y="1149" as="sourcePoint" />
            <mxPoint x="-175" y="1149" as="targetPoint" />
            <Array as="points">
              <mxPoint x="-366" y="1149" />
            </Array>
          </mxGeometry>
        </mxCell>
        <mxCell id="fN3GGHN8PjM2oaeLc_PI-153" value="Отображение&lt;br&gt;&amp;nbsp;обновленной информации" style="text;html=1;align=center;verticalAlign=middle;resizable=0;points=[];autosize=1;strokeColor=none;fillColor=none;" vertex="1" parent="1">
          <mxGeometry x="-396.5" y="1104" width="170" height="41" as="geometry" />
        </mxCell>
      </root>
    </mxGraphModel>
  </diagram>
</mxfile>
